<svg width="963" height="112" viewBox="0 0 963 112" fill="none" xmlns="http://www.w3.org/2000/svg">
<path d="M144.983 81.0373V29.8076H161.705C166.481 29.8076 170.755 30.8213 174.527 32.8525C178.294 34.8799 181.237 37.7657 183.353 41.5098C185.468 45.2501 186.524 49.5011 186.524 54.2663V56.623C186.524 61.3845 185.484 65.6207 183.408 69.3241C181.328 73.0312 178.4 75.9021 174.617 77.9444C170.834 79.9866 166.568 81.0188 161.815 81.041H144.983V81.0373ZM156.179 38.3576V72.5576H161.591C165.971 72.5576 169.319 71.2109 171.63 68.5101C173.946 65.8131 175.127 61.9543 175.174 56.9338V54.2256C175.174 49.0164 174.028 45.0726 171.74 42.3866C169.452 39.7006 166.105 38.3576 161.701 38.3576H156.179Z" fill="white"/>
<path d="M211.68 60.4892L205.856 66.4013V81.0373H194.659V29.8076H205.856V53.0306L210.781 46.6634L224.627 29.8113H238.398L219.101 52.5756L238.959 81.041H225.635L211.68 60.4892Z" fill="white"/>
<path d="M265.814 77.1676C263.154 80.2161 259.468 81.7404 254.767 81.7404C250.438 81.7404 247.134 80.5676 244.858 78.222C242.581 75.8764 241.416 72.4394 241.369 67.9109V42.9639H252.157V67.5891C252.157 71.5588 254.072 73.5419 257.903 73.5419C261.56 73.5419 264.076 72.3432 265.441 69.9495V42.9676H276.265V81.0374H266.113L265.814 77.1676Z" fill="white"/>
<path d="M320.793 62.3539C320.793 68.4547 319.411 73.2088 316.648 76.6199C313.885 80.0347 310.032 81.7403 305.079 81.7403C300.699 81.7403 297.202 80.1568 294.589 76.9899L294.102 81.0374H284.397V26.9922H295.181V46.3786C297.669 43.6334 300.942 42.2608 304.996 42.2608C309.926 42.2608 313.787 43.9664 316.585 47.3812C319.384 50.796 320.785 55.5982 320.785 61.7915V62.3539H320.793ZM310.008 61.614C310.008 57.7663 309.36 54.9582 308.069 53.186C306.774 51.4139 304.847 50.5297 302.285 50.5297C298.851 50.5297 296.488 51.8542 295.193 54.5068V69.5313C296.512 72.2062 298.902 73.5418 302.359 73.5418C305.84 73.5418 308.132 71.925 309.227 68.6878C309.745 67.1376 310.008 64.7809 310.008 61.614Z" fill="white"/>
<path d="M346.023 81.7404C340.101 81.7404 335.282 80.0275 331.561 76.6052C327.841 73.1793 325.98 68.6176 325.98 62.9164V61.9322C325.98 58.1105 326.765 54.6919 328.331 51.6767C329.897 48.6651 332.118 46.3417 334.995 44.7101C337.868 43.0786 341.145 42.2646 344.83 42.2646C350.352 42.2646 354.7 43.9073 357.875 47.189C361.05 50.4743 362.635 55.1285 362.635 61.159V65.3101H336.918C337.267 67.7963 338.315 69.7904 340.073 71.2925C341.828 72.7946 344.049 73.5456 346.737 73.5456C350.893 73.5456 354.139 72.1249 356.478 69.2872L361.78 74.8812C360.163 77.0381 357.973 78.7215 355.21 79.9313C352.443 81.1374 349.382 81.7404 346.023 81.7404ZM344.791 50.4595C342.652 50.4595 340.917 51.1439 339.583 52.5091C338.252 53.878 337.401 55.8314 337.024 58.3768H352.031V57.5629C351.98 55.3024 351.333 53.5524 350.093 52.313C348.849 51.081 347.082 50.4595 344.791 50.4595Z" fill="white"/>
<path d="M54.7507 57.8151L0 75.9547V25.2097L54.7507 6.7334V57.8151Z" fill="#7660A8"/>
<path d="M54.751 57.8151L109.494 75.9547V25.2097L54.751 6.7334V57.8151Z" fill="#9384BD"/>
<path d="M54.7467 65.7217L0 83.8613L54.7467 102.001L109.49 83.8613L54.7467 65.7217Z" fill="#D6D6D6"/>
<path d="M362.686 32.1953H364.602L366.626 36.8504H366.712L368.736 32.1953H370.653V39.1238H369.146V34.6142H369.085L367.183 39.09H366.156L364.254 34.5973H364.193V39.1238H362.686V32.1953Z" fill="white"/>
<path d="M355.656 33.4031V32.1953H361.692V33.4031H359.442V39.1238H357.906V33.4031H355.656Z" fill="white"/>
<path d="M436.795 65.5605C438.676 66.623 440.58 67.5859 442.506 68.4492C444.454 69.2904 446.468 70.0098 448.549 70.6074C450.63 71.1829 452.81 71.6257 455.09 71.9355C457.392 72.2454 459.838 72.4004 462.428 72.4004C465.549 72.4004 468.205 72.2012 470.396 71.8027C472.588 71.3822 474.37 70.8177 475.742 70.1094C477.137 69.3789 478.144 68.5156 478.764 67.5195C479.406 66.5234 479.727 65.4388 479.727 64.2656C479.727 62.3841 478.941 60.901 477.369 59.8164C475.798 58.7096 473.374 58.1562 470.098 58.1562C468.659 58.1562 467.143 58.2559 465.549 58.4551C463.955 58.6322 462.339 58.8314 460.701 59.0527C459.085 59.2741 457.48 59.4844 455.887 59.6836C454.315 59.8607 452.832 59.9492 451.438 59.9492C449.113 59.9492 446.878 59.6504 444.73 59.0527C442.605 58.4551 440.713 57.5586 439.053 56.3633C437.415 55.168 436.109 53.6738 435.135 51.8809C434.161 50.0879 433.674 47.9961 433.674 45.6055C433.674 44.1888 433.862 42.7832 434.238 41.3887C434.637 39.9941 435.257 38.666 436.098 37.4043C436.961 36.1204 438.068 34.9362 439.418 33.8516C440.768 32.7448 442.395 31.793 444.299 30.9961C446.225 30.1992 448.438 29.5794 450.939 29.1367C453.463 28.6719 456.329 28.4395 459.539 28.4395C461.863 28.4395 464.199 28.5723 466.545 28.8379C468.891 29.0814 471.171 29.4355 473.385 29.9004C475.62 30.3652 477.768 30.9297 479.826 31.5938C481.885 32.2357 483.799 32.9551 485.57 33.752L480.955 42.252C479.494 41.61 477.923 41.0234 476.24 40.4922C474.558 39.9388 472.798 39.4629 470.961 39.0645C469.124 38.666 467.22 38.3561 465.25 38.1348C463.302 37.8913 461.31 37.7695 459.273 37.7695C456.374 37.7695 453.983 37.9798 452.102 38.4004C450.242 38.821 448.759 39.3633 447.652 40.0273C446.546 40.6693 445.771 41.3997 445.328 42.2188C444.908 43.0156 444.697 43.8125 444.697 44.6094C444.697 46.1589 445.395 47.4316 446.789 48.4277C448.184 49.4017 450.309 49.8887 453.164 49.8887C454.315 49.8887 455.632 49.8112 457.115 49.6562C458.62 49.4792 460.192 49.291 461.83 49.0918C463.49 48.8926 465.173 48.7155 466.877 48.5605C468.604 48.3835 470.275 48.2949 471.891 48.2949C474.945 48.2949 477.646 48.638 479.992 49.3242C482.361 50.0104 484.342 50.9954 485.936 52.2793C487.529 53.541 488.736 55.0794 489.555 56.8945C490.374 58.6875 490.783 60.7018 490.783 62.9375C490.783 65.9258 490.086 68.5931 488.691 70.9395C487.319 73.2637 485.349 75.2337 482.781 76.8496C480.236 78.4434 477.159 79.6608 473.551 80.502C469.943 81.321 465.925 81.7305 461.498 81.7305C458.576 81.7305 455.721 81.5423 452.932 81.166C450.143 80.8118 447.464 80.3027 444.896 79.6387C442.351 78.9525 439.916 78.1445 437.592 77.2148C435.29 76.263 433.154 75.2227 431.184 74.0938L436.795 65.5605ZM499.283 61.2773C499.283 58.6211 499.826 56.0866 500.91 53.6738C501.995 51.2389 503.555 49.0918 505.592 47.2324C507.628 45.373 510.118 43.89 513.062 42.7832C516.029 41.6764 519.393 41.123 523.156 41.123C526.897 41.123 530.262 41.6875 533.25 42.8164C536.26 43.9232 538.806 45.4505 540.887 47.3984C542.99 49.3464 544.594 51.6374 545.701 54.2715C546.83 56.9056 547.395 59.7279 547.395 62.7383C547.395 63.1146 547.383 63.5241 547.361 63.9668C547.361 64.3874 547.339 64.7747 547.295 65.1289H510.24C510.661 66.3021 511.336 67.3757 512.266 68.3496C513.217 69.3236 514.402 70.1647 515.818 70.873C517.235 71.5814 518.873 72.1348 520.732 72.5332C522.592 72.9095 524.65 73.0977 526.908 73.0977C529.166 73.0977 531.413 72.8652 533.648 72.4004C535.884 71.9134 538.02 71.3047 540.057 70.5742L543.377 78.0781C542.093 78.6758 540.787 79.207 539.459 79.6719C538.153 80.1146 536.781 80.4909 535.342 80.8008C533.925 81.0885 532.431 81.3099 530.859 81.4648C529.31 81.6198 527.672 81.6973 525.945 81.6973C521.54 81.6973 517.678 81.166 514.357 80.1035C511.037 79.041 508.259 77.5911 506.023 75.7539C503.788 73.9167 502.105 71.7585 500.977 69.2793C499.848 66.8001 499.283 64.1328 499.283 61.2773ZM536.969 57.459C536.615 56.3743 536.061 55.3672 535.309 54.4375C534.578 53.4857 533.66 52.6667 532.553 51.9805C531.446 51.2721 530.162 50.7188 528.701 50.3203C527.24 49.9219 525.635 49.7227 523.887 49.7227C522.027 49.7227 520.334 49.9329 518.807 50.3535C517.279 50.7741 515.94 51.3385 514.789 52.0469C513.638 52.7552 512.675 53.5742 511.9 54.5039C511.148 55.4336 510.594 56.4186 510.24 57.459H536.969ZM555.629 61.5098C555.629 58.6322 556.149 55.9538 557.189 53.4746C558.252 50.9733 559.79 48.8151 561.805 47C563.841 45.1628 566.32 43.724 569.242 42.6836C572.186 41.6432 575.54 41.123 579.303 41.123C580.941 41.123 582.59 41.2227 584.25 41.4219C585.91 41.6211 587.504 41.9089 589.031 42.2852C590.581 42.6393 592.031 43.071 593.381 43.5801C594.731 44.0671 595.904 44.6094 596.9 45.207L592.352 52.6113C590.204 51.6152 588.168 50.8848 586.242 50.4199C584.339 49.9551 582.402 49.7227 580.432 49.7227C578.174 49.7227 576.148 50.0215 574.355 50.6191C572.562 51.1947 571.035 52.0137 569.773 53.0762C568.534 54.1165 567.582 55.3561 566.918 56.7949C566.276 58.2116 565.955 59.7611 565.955 61.4434C565.955 63.1257 566.298 64.6862 566.984 66.125C567.693 67.5417 568.678 68.7702 569.939 69.8105C571.223 70.8288 572.762 71.6367 574.555 72.2344C576.37 72.8099 578.384 73.0977 580.598 73.0977C583.033 73.0977 585.324 72.7546 587.471 72.0684C589.64 71.3822 591.654 70.4635 593.514 69.3125L598.062 76.7168C596.889 77.4251 595.617 78.0892 594.244 78.709C592.872 79.3066 591.4 79.8268 589.828 80.2695C588.279 80.7122 586.641 81.0553 584.914 81.2988C583.21 81.5645 581.439 81.6973 579.602 81.6973C575.861 81.6973 572.507 81.1882 569.541 80.1699C566.575 79.1517 564.062 77.7461 562.004 75.9531C559.945 74.138 558.363 72.002 557.256 69.5449C556.171 67.0879 555.629 64.4095 555.629 61.5098ZM608.654 41.7871H618.449V60.9121C618.449 62.7272 618.648 64.3874 619.047 65.8926C619.445 67.3757 620.12 68.6484 621.072 69.7109C622.046 70.7734 623.33 71.6035 624.924 72.2012C626.54 72.7767 628.543 73.0645 630.934 73.0645C632.062 73.0645 633.202 72.9427 634.354 72.6992C635.527 72.4557 636.645 72.1237 637.707 71.7031C638.77 71.2604 639.755 70.7402 640.662 70.1426C641.592 69.5449 642.389 68.8919 643.053 68.1836V41.7871H652.881V81H643.053V77.6465C640.64 79.0853 638.216 80.1146 635.781 80.7344C633.346 81.3542 631.033 81.6641 628.842 81.6641C625.256 81.6641 622.179 81.2324 619.611 80.3691C617.066 79.5059 614.974 78.2552 613.336 76.6172C611.72 74.957 610.536 72.9316 609.783 70.541C609.031 68.1283 608.654 65.3835 608.654 62.3066V41.7871ZM665.365 41.8203H675.193V47.4648C677.363 45.849 679.654 44.4544 682.066 43.2812C684.479 42.1081 686.881 41.2116 689.271 40.5918L692.16 49.5898C688.375 49.9661 685.044 50.8184 682.166 52.1465C679.311 53.4525 676.986 55.3008 675.193 57.6914V81H665.365V41.8203ZM697.639 61.2773C697.639 58.6211 698.181 56.0866 699.266 53.6738C700.35 51.2389 701.911 49.0918 703.947 47.2324C705.984 45.373 708.474 43.89 711.418 42.7832C714.384 41.6764 717.749 41.123 721.512 41.123C725.253 41.123 728.617 41.6875 731.605 42.8164C734.616 43.9232 737.161 45.4505 739.242 47.3984C741.345 49.3464 742.95 51.6374 744.057 54.2715C745.186 56.9056 745.75 59.7279 745.75 62.7383C745.75 63.1146 745.739 63.5241 745.717 63.9668C745.717 64.3874 745.695 64.7747 745.65 65.1289H708.596C709.016 66.3021 709.691 67.3757 710.621 68.3496C711.573 69.3236 712.757 70.1647 714.174 70.873C715.59 71.5814 717.229 72.1348 719.088 72.5332C720.947 72.9095 723.006 73.0977 725.264 73.0977C727.521 73.0977 729.768 72.8652 732.004 72.4004C734.24 71.9134 736.376 71.3047 738.412 70.5742L741.732 78.0781C740.449 78.6758 739.143 79.207 737.814 79.6719C736.508 80.1146 735.136 80.4909 733.697 80.8008C732.281 81.0885 730.786 81.3099 729.215 81.4648C727.665 81.6198 726.027 81.6973 724.301 81.6973C719.896 81.6973 716.033 81.166 712.713 80.1035C709.393 79.041 706.615 77.5911 704.379 75.7539C702.143 73.9167 700.461 71.7585 699.332 69.2793C698.203 66.8001 697.639 64.1328 697.639 61.2773ZM735.324 57.459C734.97 56.3743 734.417 55.3672 733.664 54.4375C732.934 53.4857 732.015 52.6667 730.908 51.9805C729.801 51.2721 728.518 50.7188 727.057 50.3203C725.596 49.9219 723.991 49.7227 722.242 49.7227C720.383 49.7227 718.689 49.9329 717.162 50.3535C715.635 50.7741 714.296 51.3385 713.145 52.0469C711.993 52.7552 711.031 53.5742 710.256 54.5039C709.503 55.4336 708.95 56.4186 708.596 57.459H735.324ZM757.57 29.1035H768.096V71.7695H798.277V81H757.57V29.1035ZM812.455 36.4746C811.481 36.4746 810.596 36.3418 809.799 36.0762C809.024 35.7884 808.36 35.4121 807.807 34.9473C807.253 34.4603 806.822 33.9069 806.512 33.2871C806.224 32.6452 806.08 31.9701 806.08 31.2617C806.08 30.5312 806.224 29.8561 806.512 29.2363C806.822 28.5944 807.253 28.041 807.807 27.5762C808.36 27.1113 809.024 26.7461 809.799 26.4805C810.596 26.1927 811.481 26.0488 812.455 26.0488C813.451 26.0488 814.337 26.1927 815.111 26.4805C815.908 26.7461 816.583 27.1113 817.137 27.5762C817.69 28.041 818.111 28.5944 818.398 29.2363C818.708 29.8561 818.863 30.5312 818.863 31.2617C818.863 31.9701 818.708 32.6452 818.398 33.2871C818.111 33.9069 817.69 34.4603 817.137 34.9473C816.583 35.4121 815.908 35.7884 815.111 36.0762C814.337 36.3418 813.451 36.4746 812.455 36.4746ZM807.541 41.8203H817.369V81H807.541V41.8203ZM829.986 41.8203H839.814V45.1406C842.426 43.6576 844.917 42.6172 847.285 42.0195C849.676 41.4219 852.011 41.123 854.291 41.123C857.279 41.123 860.046 41.5658 862.592 42.4512C865.137 43.3145 867.34 44.6094 869.199 46.3359C871.059 48.0625 872.508 50.2207 873.549 52.8105C874.611 55.3783 875.143 58.3555 875.143 61.7422V81H865.348V63.3359C865.348 61.1888 865.038 59.2741 864.418 57.5918C863.82 55.8874 862.946 54.4596 861.795 53.3086C860.666 52.1354 859.283 51.25 857.645 50.6523C856.029 50.0326 854.214 49.7227 852.199 49.7227C851.137 49.7227 850.041 49.8333 848.912 50.0547C847.805 50.276 846.71 50.597 845.625 51.0176C844.562 51.416 843.533 51.9251 842.537 52.5449C841.541 53.1426 840.633 53.8288 839.814 54.6035V81H829.986V41.8203ZM887.262 25.916H897.09V58.4551L915.418 41.8203H930.459L909.973 60.1484L931.754 81H917.012L902.436 66.8887L897.09 71.6699V81H887.262V25.916Z" fill="white"/>
<line x1="400.5" y1="11" x2="400.5" y2="100" stroke="white" stroke-width="3"/>
</svg>
